<svg enable-background="new 0 0 64 64" height="64px" version="1.1" viewBox="0 0 64 64" width="64px" xml:space="preserve" xmlns="http://www.w3.org/2000/svg" xmlns:xlink="http://www.w3.org/1999/xlink" fill="#FFCC0D"><path d="M13.4545898,23.0166016l13.6975098,7.9957275c0.0008545,0.0004883,0.001709,0.0009766,0.0025024,0.0014648    l3.3214722,1.9388428c0.4584961,0.2675781,0.9814453,0.4091797,1.5126953,0.4091797h0.0224609    c0.53125,0,1.0541992-0.1416016,1.512207-0.4091797l17.0219727-9.9360352C52.6762695,21.7734375,54,19.4677734,54,17v-2H10v2    C10,19.4677734,11.3237305,21.7734375,13.4545898,23.0166016z"/><path d="M51.5532227,24.7441406l-12.3536987,7.2113037L56,44.0621948V17    C56,20.1762695,54.2958984,23.1435547,51.5532227,24.7441406z"/><path d="M34.5317383,34.6801758c-0.7636719,0.4458008-1.6357422,0.6816406-2.5205078,0.6816406    c-0.8896484,0.0244141-1.7783203-0.2348633-2.543457-0.6816406l-2.7774658-1.6213379L8,46.527832V48c0,0.5522461,0.4477539,1,1,1    h46c0.5522461,0,1-0.4477539,1-1v-1.4724121l-18.6906128-13.468811L34.5317383,34.6801758z"/><path d="M12.4467773,24.7441406C9.7041016,23.1435547,8,20.1762695,8,17v27.062439l16.8002319-12.1069946L12.4467773,24.7441406z"/></svg>