<svg style="display: none;" aria-hidden="true" xmlns="http://www.w3.org/2000/svg" xmlns:xlink="http://www.w3.org/1999/xlink"><symbol viewBox="0 0 32 32" id="svg-github"><path d="M16 0.396c-8.839 0-16 7.167-16 16 0 7.073 4.584 13.068 10.937 15.183 0.803 0.151 1.093-0.344 1.093-0.772 0-0.38-0.009-1.385-0.015-2.719-4.453 0.964-5.391-2.151-5.391-2.151-0.729-1.844-1.781-2.339-1.781-2.339-1.448-0.989 0.115-0.968 0.115-0.968 1.604 0.109 2.448 1.645 2.448 1.645 1.427 2.448 3.744 1.74 4.661 1.328 0.14-1.031 0.557-1.74 1.011-2.135-3.552-0.401-7.287-1.776-7.287-7.907 0-1.751 0.62-3.177 1.645-4.297-0.177-0.401-0.719-2.031 0.141-4.235 0 0 1.339-0.427 4.4 1.641 1.281-0.355 2.641-0.532 4-0.541 1.36 0.009 2.719 0.187 4 0.541 3.043-2.068 4.381-1.641 4.381-1.641 0.859 2.204 0.317 3.833 0.161 4.235 1.015 1.12 1.635 2.547 1.635 4.297 0 6.145-3.74 7.5-7.296 7.891 0.556 0.479 1.077 1.464 1.077 2.959 0 2.14-0.020 3.864-0.020 4.385 0 0.416 0.28 0.916 1.104 0.755 6.4-2.093 10.979-8.093 10.979-15.156 0-8.833-7.161-16-16-16z"/></symbol><symbol viewBox="0 0 48 48" id="svg-linkedin"><path fill-rule="evenodd" clip-rule="evenodd" d="M0 24C0 10.7452 10.7452 0 24 0C37.2548 0 48 10.7452 48 24C48 37.2548 37.2548 48 24 48C10.7452 48 0 37.2548 0 24ZM16.9605 19.8778H11.5216V36.2196H16.9605V19.8778ZM17.3188 14.8227C17.2835 13.2204 16.1377 12 14.277 12C12.4164 12 11.2 13.2204 11.2 14.8227C11.2 16.3918 12.3805 17.6473 14.2064 17.6473H14.2412C16.1377 17.6473 17.3188 16.3918 17.3188 14.8227ZM36.5754 26.8497C36.5754 21.8303 33.8922 19.4941 30.3131 19.4941C27.4254 19.4941 26.1326 21.0802 25.4107 22.1929V19.8783H19.9711C20.0428 21.4117 19.9711 36.22 19.9711 36.22H25.4107V27.0934C25.4107 26.605 25.446 26.1178 25.5898 25.7681C25.9829 24.7924 26.8779 23.7822 28.3805 23.7822C30.3494 23.7822 31.1365 25.2807 31.1365 27.4767V36.2196H36.5752L36.5754 26.8497Z"/></symbol><symbol viewBox="0 0 48 48" id="svg-telegram"><path fill-rule="evenodd" clip-rule="evenodd" d="M48 24C48 37.2548 37.2548 48 24 48C10.7452 48 0 37.2548 0 24C0 10.7452 10.7452 0 24 0C37.2548 0 48 10.7452 48 24ZM16.0715 21.8015C13.6673 22.8512 11.1971 23.9298 8.93825 25.174C7.75877 26.0376 9.32638 26.6485 10.7971 27.2215C11.0309 27.3126 11.2622 27.4027 11.4797 27.4927C11.6607 27.5484 11.8447 27.607 12.0312 27.6664C13.6669 28.1875 15.4907 28.7686 17.0787 27.8945C19.6873 26.396 22.149 24.6636 24.6089 22.9325C25.4148 22.3653 26.2205 21.7983 27.0311 21.2397C27.0691 21.2154 27.1119 21.1876 27.1588 21.1573C27.8493 20.7096 29.4024 19.7029 28.8279 21.0901C27.4695 22.5757 26.0144 23.8907 24.5515 25.213C23.5655 26.1041 22.5759 26.9985 21.6099 27.9505C20.7686 28.6341 19.8949 30.0088 20.837 30.9661C23.0069 32.4851 25.2107 33.9673 27.4132 35.4487C28.1299 35.9307 28.8466 36.4127 29.5618 36.8959C30.774 37.8637 32.6685 37.0808 32.935 35.5685C33.0535 34.8728 33.1725 34.1772 33.2915 33.4815C33.9491 29.6368 34.6069 25.7907 35.188 21.9335C35.267 21.3284 35.3565 20.7234 35.4461 20.1181C35.6632 18.651 35.8806 17.1821 35.9485 15.7071C35.7735 14.2351 33.9887 14.5588 32.9955 14.8898C27.8903 16.8324 22.8361 18.919 17.8019 21.0424C17.2316 21.295 16.6535 21.5474 16.0715 21.8015Z"/></symbol></svg>